Coordinates
version=1
nRows=24
nColumns=24
inDegrees=yes

Units are S.I. units (second, meters, Newtons, ...)
Angles are in degrees.

endheader
time	pelvis_tilt	pelvis_list	pelvis_rotation	pelvis_tx	pelvis_ty	pelvis_tz	hip_flexion_r	hip_adduction_r	hip_rotation_r	knee_angle_r	ankle_angle_r	subtalar_angle_r	mtp_angle_r	hip_flexion_l	hip_adduction_l	hip_rotation_l	knee_angle_l	ankle_angle_l	subtalar_angle_l	mtp_angle_l	lumbar_extension	lumbar_bending	lumbar_rotation
      4.06500000	     10.43021192	     12.77049596	     16.62189642	     -0.15375350	      0.73468890	     -0.27342603	     13.72258882	    -16.89324013	     -4.57105481	    -12.15320102	     17.82079424	      9.94164722	      0.00000000	    -30.07570907	      5.56272156	     10.52906494	    -17.18991228	     28.84603698	     14.09641945	      0.00000000	    -29.24761885	     -6.36260835	     -8.50072320
      4.07000000	     10.56922411	     12.35620949	     16.61178049	     -0.14493977	      0.73485040	     -0.27288086	     13.54979548	    -16.27142320	     -4.81736352	    -13.06843141	     16.98647237	      9.30907242	      0.00000000	    -29.95561430	      5.08371667	     10.64801347	    -18.73594259	     27.97303006	     13.35209181	      0.00000000	    -28.98598016	     -5.98469761	     -7.89317915
      4.07500000	     10.62870108	     11.92603830	     16.50281422	     -0.13618711	      0.73495483	     -0.27226984	     13.54187509	    -15.64054404	     -4.97350177	    -14.08455386	     16.15703553	      8.81220196	      0.00000000	    -29.62954661	      4.70002536	     10.55846365	    -20.48950487	     26.97265188	     12.67808410	      0.00000000	    -28.64476068	     -5.65134365	     -7.18140141
      4.08000000	     10.69287278	     11.46973938	     16.38719915	     -0.12752776	      0.73512050	     -0.27164443	     13.53661155	    -14.98150173	     -5.13692766	    -15.13107819	     15.38044995	      8.39141136	      0.00000000	    -29.19373527	      4.32817327	     10.43314109	    -22.41358029	     25.82850415	     11.89484194	      0.00000000	    -28.32458357	     -5.28575500	     -6.47343133
      4.08500000	     10.75907976	     10.98613781	     16.24711949	     -0.11897257	      0.73533141	     -0.27103132	     13.53439074	    -14.28926819	     -5.26693646	    -16.17645019	     14.68446124	      8.01302230	      0.00000000	    -28.64863978	      3.98166156	     10.26812564	    -24.49956307	     24.51787759	     10.99036183	      0.00000000	    -28.02137737	     -4.88168761	     -5.75876012
      4.09000000	     10.83308182	     10.46265294	     16.09686784	     -0.11051532	      0.73559799	     -0.27040904	     13.52016618	    -13.54632390	     -5.36817561	    -17.20782309	     14.09870762	      7.71129069	      0.00000000	    -28.00653587	      3.62893812	     10.05788096	    -26.70903052	     23.05398848	      9.97195483	      0.00000000	    -27.73907806	     -4.42921292	     -5.04734712
      4.09500000	     10.91653932	      9.89766995	     15.93839600	     -0.10216413	      0.73591040	     -0.26979115	     13.48416198	    -12.75103927	     -5.44451142	    -18.20089071	     13.64253256	      7.47521167	      0.00000000	    -27.26746945	      3.26200638	      9.79605327	    -29.04061856	     21.42268068	      8.84686155	      0.00000000	    -27.48304693	     -3.91993922	     -4.33622212
      4.10000000	     10.94326395	      9.33149092	     15.77442913	     -0.09393671	      0.73622739	     -0.26915843	     13.48888478	    -11.94589797	     -5.38829170	    -19.14897266	     13.34814827	      7.16962524	      0.00000000	    -26.37843734	      2.94081692	      9.53469870	    -31.46451002	     19.56430184	      7.58762670	      0.00000000	    -27.19724234	     -3.42483001	     -3.63923319
      4.10500000	     11.01136025	      8.70051243	     15.61681420	     -0.08583414	      0.73659396	     -0.26855259	     13.43401144	    -11.06159495	     -5.35693800	    -20.04619471	     13.19673731	      6.98009045	      0.00000000	    -25.43184070	      2.55287051	      9.21540342	    -33.96412993	     17.63563780	      6.25146765	      0.00000000	    -26.96879454	     -2.82864963	     -2.95947491
      4.11000000	     11.08216218	      8.03656932	     15.46823692	     -0.07785266	      0.73699153	     -0.26796134	     13.34577752	    -10.12987236	     -5.28492153	    -20.87114247	     13.19164837	      6.80110695	      0.00000000	    -24.40667728	      2.13923553	      8.88480150	    -36.50620518	     15.59950449	      4.82925511	      0.00000000	    -26.76699674	     -2.18300060	     -2.30393262
      4.11500000	     11.22137508	      7.29586100	     15.34621848	     -0.06997449	      0.73746223	     -0.26741621	     13.14097348	     -9.10370772	     -5.27761565	    -21.58897817	     13.31261950	      6.75356841	      0.00000000	    -23.37060387	      1.61249922	      8.50690152	    -39.06722610	     13.58272903	      3.42247418	      0.00000000	    -26.64557669	     -1.41127463	     -1.67202319
      4.12000000	     11.22748300	      6.62693412	     15.21805476	     -0.06225512	      0.73786569	     -0.26685210	     13.05053509	     -8.14477872	     -5.03895659	    -22.26459254	     13.57214992	      6.42545439	      0.00000000	    -22.15709464	      1.23297186	      8.25341618	    -41.61650014	     11.39019656	      1.83719430	      0.00000000	    -26.44262678	     -0.75813382	     -1.08906632
      4.12500000	     11.36278986	      5.83477079	     15.13505428	     -0.05458772	      0.73837920	     -0.26639152	     12.76054343	     -7.04674313	     -4.96902522	    -22.78690650	     13.93854749	      6.37964393	      0.00000000	    -21.01477736	      0.65880931	      7.96030737	    -44.12894999	      9.41637383	      0.44023896	      0.00000000	    -26.35937641	      0.10085194	     -0.50950034
      4.13000000	     11.36039047	      5.15311609	     15.05486654	     -0.04712250	      0.73881992	     -0.26589551	     12.58390568	     -6.06115869	     -4.70770422	    -23.26567509	     14.35545828	      5.97529023	      0.00000000	    -19.69322297	      0.25815681	      7.76765112	    -46.61594110	      7.40162931	     -1.09436041	      0.00000000	    -26.20871939	      0.79752356	     -0.02938894
      4.13500000	     11.45052294	      4.40052188	     15.00411828	     -0.03971921	      0.73933701	     -0.26548979	     12.25834574	     -4.99846011	     -4.57693476	    -23.62102404	     14.84520587	      5.77971400	      0.00000000	    -18.43098718	     -0.26131000	      7.56656329	    -49.03324967	      5.69190511	     -2.41417304	      0.00000000	    -26.15433782	      1.62472907	      0.43620894
      4.14000000	     11.47317862	      3.68749544	     14.98177521	     -0.03241534	      0.73984701	     -0.26513961	     11.93159705	     -3.97286341	     -4.32650446	    -23.84510348	     15.38641884	      5.41960157	      0.00000000	    -17.08318349	     -0.69581126	      7.51689999	    -51.37291683	      4.14832686	     -3.62825389	      0.00000000	    -26.05717492	      2.40400150	      0.85627529
      4.14500000	     11.56486254	      2.97737618	     14.96630895	     -0.02520823	      0.74041960	     -0.26485283	     11.49765959	     -2.95446067	     -4.18994142	    -23.99507576	     15.94566115	      5.18707035	      0.00000000	    -15.78930348	     -1.15450454	      7.45041084	    -53.62778546	      2.94890139	     -4.65878431	      0.00000000	    -26.05887148	      3.21494609	      1.24529257
      4.15000000	     11.58236775	      2.30945523	     14.98874159	     -0.01808689	      0.74097545	     -0.26462530	     11.06769868	     -1.98279417	     -3.95362444	    -24.01029893	     16.51312687	      4.78798333	      0.00000000	    -14.40302710	     -1.52816919	      7.51908535	    -55.80229517	      2.03305052	     -5.49165347	      0.00000000	    -26.00177861	      3.97501912	      1.57065823
      4.15500000	     11.62691088	      1.66638842	     15.01418421	     -0.01104265	      0.74156191	     -0.26445230	     10.57174809	     -1.04356863	     -3.76865363	    -23.95254107	     17.08249199	      4.45485992	      0.00000000	    -13.03920507	     -1.87729492	      7.59754760	    -57.87954854	      1.48650042	     -6.11151834	      0.00000000	    -25.99525507	      4.72452470	      1.86873237
      4.16000000	     11.73704558	      1.07789026	     15.01287612	     -0.00404124	      0.74224811	     -0.26436892	      9.95249018	     -0.16880197	     -3.63700057	    -23.80612648	     17.66855378	      4.33452767	      0.00000000	    -11.77186943	     -2.15600592	      7.68319088	    -59.81689781	      1.26016075	     -6.61867767	      0.00000000	    -26.08246393	      5.43966083	      2.18153272
      4.16500000	     11.74167256	      0.51673388	     15.09055204	      0.00283412	      0.74283445	     -0.26426885	      9.41578530	      0.66588048	     -3.48682904	    -23.60206191	     18.17556883	      3.88229648	      0.00000000	    -10.33818578	     -2.40029795	      7.86512841	    -61.71841191	      1.36871736	     -6.73535279	      0.00000000	    -26.07677791	      6.10659570	      2.36948600
      4.17000000	     11.82883305	      0.02113691	     15.09610664	      0.00974129	      0.74354603	     -0.26429440	      8.72927375	      1.42121747	     -3.35576791	    -23.30680032	     18.71581767	      3.77970820	      0.00000000	     -9.05461010	     -2.55188012	      7.98654897	    -63.43421867	      1.74243527	     -6.87935482	      0.00000000	    -26.16642343	      6.73042848	      2.63353836
      4.17500000	     11.84898196	     -0.43247699	     15.16119276	      0.01653808	      0.74418466	     -0.26426916	      8.09172260	      2.12919531	     -3.21761480	    -22.97243132	     19.21006306	      3.43930329	      0.00000000	     -7.66814834	     -2.65872936	      8.19104821	    -65.08228568	      2.44953181	     -6.60966273	      0.00000000	    -26.20694176	      7.28720037	      2.77835089
      4.18000000	     11.93033132	     -0.85179914	     15.15663799	      0.02334893	      0.74490399	     -0.26431313	      7.35872250	      2.78584518	     -3.12913101	    -22.58893067	     19.68430337	      3.39960236	      0.00000000	     -6.38516604	     -2.71853498	      8.30427171	    -66.56519451	      3.27978821	     -6.42205947	      0.00000000	    -26.32222273	      7.81422925	      3.01313047
